<svg width="25" height="24" viewBox="0 0 25 24" fill="none" xmlns="http://www.w3.org/2000/svg">
<path fill-rule="evenodd" clip-rule="evenodd" d="M19.25 11H7.385L11.018 6.63997C11.372 6.21597 11.314 5.58497 10.89 5.23197C10.465 4.87797 9.835 4.93597 9.482 5.35997L4.482 11.36C4.443 11.407 4.423 11.462 4.394 11.514C4.37 11.556 4.341 11.592 4.323 11.638C4.278 11.753 4.251 11.874 4.251 11.996C4.251 11.997 4.25 11.999 4.25 12C4.25 12.001 4.251 12.003 4.251 12.004C4.251 12.126 4.278 12.247 4.323 12.362C4.341 12.408 4.37 12.444 4.394 12.486C4.423 12.538 4.443 12.593 4.482 12.64L9.482 18.64C9.68 18.877 9.964 19 10.25 19C10.476 19 10.703 18.924 10.89 18.768C11.314 18.415 11.372 17.784 11.018 17.36L7.385 13H19.25C19.802 13 20.25 12.552 20.25 12C20.25 11.448 19.802 11 19.25 11Z" fill="white"/>
</svg>
