<svg width="25" height="24" viewBox="0 0 25 24" fill="none" xmlns="http://www.w3.org/2000/svg">
<path fill-rule="evenodd" clip-rule="evenodd" d="M8.25 10C9.078 10 9.75 9.328 9.75 8.5C9.75 7.672 9.078 7 8.25 7C7.422 7 6.75 7.672 6.75 8.5C6.75 9.328 7.422 10 8.25 10ZM18.25 19H6.811L13.816 13.155C14.062 12.946 14.508 12.947 14.749 13.154L19.25 16.994V18C19.25 18.552 18.802 19 18.25 19ZM6.25 5H18.25C18.802 5 19.25 5.448 19.25 6V14.364L16.047 11.632C15.057 10.79 13.508 10.79 12.527 11.626L5.25 17.698V6C5.25 5.448 5.698 5 6.25 5ZM18.25 3H6.25C4.596 3 3.25 4.346 3.25 6V18C3.25 19.654 4.596 21 6.25 21H18.25C19.904 21 21.25 19.654 21.25 18V6C21.25 4.346 19.904 3 18.25 3Z" fill="white"/>
</svg>
