<svg width="25" height="24" viewBox="0 0 25 24" fill="none" xmlns="http://www.w3.org/2000/svg">
<path fill-rule="evenodd" clip-rule="evenodd" d="M13.1172 2.19775C12.5693 1.93408 11.9307 1.93408 11.3828 2.19775L3.58887 5.94775C2.74756 6.35236 2.29834 7.28479 2.50586 8.1947C2.71338 9.10455 3.52246 9.75 4.45557 9.75H20.0444C20.9775 9.75 21.7866 9.10455 21.9941 8.1947C22.2017 7.28479 21.7524 6.35236 20.9111 5.94775L13.1172 2.19775ZM12.25 4L4.45557 7.75H20.0444L12.25 4Z" fill="white"/>
<path d="M17.25 12C17.25 11.4477 17.6978 11 18.25 11C18.8022 11 19.25 11.4477 19.25 12V19H21.25C21.8022 19 22.25 19.4477 22.25 20C22.25 20.5523 21.8022 21 21.25 21H3.25C2.7002 21 2.25 20.55 2.25 20C2.25 19.45 2.7002 19 3.25 19H5.25V12C5.25 11.4477 5.69775 11 6.25 11C6.80225 11 7.25 11.4477 7.25 12V19H9.25V12C9.25 11.4477 9.69775 11 10.25 11C10.8022 11 11.25 11.4477 11.25 12V19H13.25V12C13.25 11.4477 13.6978 11 14.25 11C14.8022 11 15.25 11.4477 15.25 12V19H17.25V12Z" fill="white"/>
</svg>
