<svg width="25" height="24" viewBox="0 0 25 24" fill="none" xmlns="http://www.w3.org/2000/svg">
<path fill-rule="evenodd" clip-rule="evenodd" d="M11.25 6.49997C11.25 5.67197 11.922 4.99997 12.75 4.99997C13.578 4.99997 14.25 5.67197 14.25 6.49997C14.25 7.32797 13.578 7.99997 12.75 7.99997C11.922 7.99997 11.25 7.32797 11.25 6.49997ZM15.451 9.25017C15.037 8.53317 15.283 7.61517 16 7.20117C16.718 6.78717 17.635 7.03317 18.049 7.75017C18.463 8.46817 18.217 9.38517 17.5 9.79917C16.782 10.2132 15.865 9.96817 15.451 9.25017ZM9.49999 7.20117C8.78299 6.78717 7.86499 7.03317 7.45099 7.75017C7.03699 8.46817 7.28299 9.38517 7.99999 9.79917C8.71799 10.2132 9.63499 9.96817 10.049 9.25017C10.463 8.53317 10.218 7.61517 9.49999 7.20117ZM6.50709 13.3388C6.04309 12.6528 6.22409 11.7198 6.91109 11.2568C7.59809 10.7928 8.53009 10.9748 8.99309 11.6608C9.45709 12.3478 9.27509 13.2798 8.58909 13.7428C7.90209 14.2068 6.97009 14.0258 6.50709 13.3388ZM16.6309 15.001H14.9809C13.6019 15.001 12.4809 16.122 12.4809 17.501C12.4809 18.107 12.7049 18.694 13.1119 19.154C13.2359 19.294 13.2769 19.459 13.2329 19.642C13.1839 19.847 12.9479 19.98 12.6389 20C10.3559 19.969 8.18889 18.958 6.69289 17.227C5.17789 15.472 4.51389 13.223 4.82389 10.895C5.33489 7.06197 8.78189 4.03297 12.6729 3.99997H12.7479C15.1049 3.99997 17.3259 4.89997 18.8549 6.47797C20.1429 7.80697 20.8149 9.50197 20.7449 11.25C20.6659 13.248 18.7429 15.001 16.6309 15.001ZM20.2899 5.08497C18.3669 3.10097 15.5649 1.99297 12.6559 1.99997H12.6549C7.71089 2.04197 3.49089 5.75197 2.84189 10.631C2.45989 13.491 3.31289 16.372 5.17989 18.534C7.04789 20.698 9.75689 21.961 12.6109 22H12.6489C13.8489 22 14.9069 21.213 15.1759 20.114C15.3749 19.292 15.1679 18.458 14.6089 17.826C14.5269 17.735 14.4809 17.616 14.4809 17.501C14.4809 17.226 14.7049 17.001 14.9809 17.001H16.6309C19.8229 17.001 22.6219 14.403 22.7429 11.329C22.8349 9.02897 21.9639 6.81197 20.2899 5.08497Z" fill="white"/>
</svg>
