<svg width="25" height="24" viewBox="0 0 25 24" fill="none" xmlns="http://www.w3.org/2000/svg">
<path fill-rule="evenodd" clip-rule="evenodd" d="M12.75 16.5C11.3717 16.5 10.25 15.3783 10.25 14C10.25 12.6217 11.3717 11.5 12.75 11.5C14.1283 11.5 15.25 12.6217 15.25 14C15.25 15.3783 14.1283 16.5 12.75 16.5ZM12.75 9.5C10.2686 9.5 8.25 11.5186 8.25 14C8.25 16.4814 10.2686 18.5 12.75 18.5C15.2314 18.5 17.25 16.4814 17.25 14C17.25 11.5186 15.2314 9.5 12.75 9.5ZM19.75 7H16.75V5.5C16.75 4.122 15.629 3 14.25 3H11.25C9.871 3 8.75 4.122 8.75 5.5V7H5.75C4.096 7 2.75 8.346 2.75 10V18C2.75 19.654 4.096 21 5.75 21H19.75C21.404 21 22.75 19.654 22.75 18V10C22.75 8.346 21.404 7 19.75 7Z" fill="white"/>
</svg>
