<svg width="25" height="24" viewBox="0 0 25 24" fill="none" xmlns="http://www.w3.org/2000/svg">
<path fill-rule="evenodd" clip-rule="evenodd" d="M13.664 12L17.957 7.70701C18.348 7.31601 18.348 6.68401 17.957 6.29301C17.566 5.90201 16.934 5.90201 16.543 6.29301L12.25 10.586L7.95701 6.29301C7.56601 5.90201 6.93401 5.90201 6.54301 6.29301C6.15201 6.68401 6.15201 7.31601 6.54301 7.70701L10.836 12L6.54301 16.293C6.15201 16.684 6.15201 17.316 6.54301 17.707C6.73801 17.902 6.99401 18 7.25001 18C7.50601 18 7.76201 17.902 7.95701 17.707L12.25 13.414L16.543 17.707C16.738 17.902 16.994 18 17.25 18C17.506 18 17.762 17.902 17.957 17.707C18.348 17.316 18.348 16.684 17.957 16.293L13.664 12Z" fill="white"/>
</svg>
