<svg width="25" height="24" viewBox="0 0 25 24" fill="none" xmlns="http://www.w3.org/2000/svg">
<path fill-rule="evenodd" clip-rule="evenodd" d="M16.2687 10.6787L13.5737 7.98367L15.5217 6.03467L18.2157 8.72867L16.2687 10.6787ZM9.32965 17.6247L6.35265 17.8957L6.61665 14.9397L12.2337 9.32267L14.9297 12.0187L9.32965 17.6247ZM19.6537 7.33767L19.6527 7.33667L16.9147 4.59867C16.1737 3.85967 14.9007 3.82467 14.1987 4.52967L5.20265 13.5257C4.87665 13.8507 4.67465 14.2827 4.63265 14.7397L4.25365 18.9097C4.22765 19.2047 4.33265 19.4967 4.54265 19.7067C4.73165 19.8957 4.98665 19.9997 5.24965 19.9997C5.28065 19.9997 5.31065 19.9987 5.34065 19.9957L9.51065 19.6167C9.96865 19.5747 10.3997 19.3737 10.7247 19.0487L19.7217 10.0517C20.4497 9.32167 20.4187 8.10367 19.6537 7.33767Z" fill="white"/>
</svg>
