<svg width="25" height="24" viewBox="0 0 25 24" fill="none" xmlns="http://www.w3.org/2000/svg">
<path fill-rule="evenodd" clip-rule="evenodd" d="M11.75 19C11.198 19 10.75 18.552 10.75 18C10.75 17.448 11.198 17 11.75 17C12.302 17 12.75 17.448 12.75 18C12.75 18.552 12.302 19 11.75 19ZM21.75 17H14.565C14.151 15.839 13.052 15 11.75 15C10.448 15 9.349 15.839 8.935 17H3.75C3.197 17 2.75 17.447 2.75 18C2.75 18.553 3.197 19 3.75 19H8.935C9.349 20.161 10.448 21 11.75 21C13.052 21 14.151 20.161 14.565 19H21.75C22.303 19 22.75 18.553 22.75 18C22.75 17.447 22.303 17 21.75 17ZM19.75 13C19.198 13 18.75 12.552 18.75 12C18.75 11.448 19.198 11 19.75 11C20.302 11 20.75 11.448 20.75 12C20.75 12.552 20.302 13 19.75 13ZM19.75 9C18.448 9 17.349 9.839 16.935 11H3.75C3.197 11 2.75 11.447 2.75 12C2.75 12.553 3.197 13 3.75 13H16.935C17.349 14.161 18.448 15 19.75 15C21.404 15 22.75 13.654 22.75 12C22.75 10.346 21.404 9 19.75 9ZM7.75 5C8.302 5 8.75 5.448 8.75 6C8.75 6.552 8.302 7 7.75 7C7.198 7 6.75 6.552 6.75 6C6.75 5.448 7.198 5 7.75 5ZM3.75 7H4.935C5.349 8.161 6.448 9 7.75 9C9.052 9 10.151 8.161 10.565 7H21.75C22.303 7 22.75 6.553 22.75 6C22.75 5.447 22.303 5 21.75 5H10.565C10.151 3.839 9.052 3 7.75 3C6.448 3 5.349 3.839 4.935 5H3.75C3.197 5 2.75 5.447 2.75 6C2.75 6.553 3.197 7 3.75 7Z" fill="white"/>
</svg>
