<svg width="25" height="24" viewBox="0 0 25 24" fill="none" xmlns="http://www.w3.org/2000/svg">
<path fill-rule="evenodd" clip-rule="evenodd" d="M11.3107 8.4395C11.8967 9.0245 11.8967 9.9755 11.3107 10.5605C10.7247 11.1465 9.77567 11.1465 9.18967 10.5605C8.60367 9.9755 8.60367 9.0245 9.18967 8.4395C9.77567 7.8535 10.7247 7.8535 11.3107 8.4395ZM6.58417 12.8916L12.6162 18.9246L19.6742 11.8666L13.6422 5.83361L5.85717 5.1076L6.58417 12.8916ZM12.6162 20.9986C12.1512 20.9986 11.6872 20.8216 11.3322 20.4686L4.91517 14.0506C4.75017 13.8866 4.64817 13.6686 4.62617 13.4366L3.75417 4.0926C3.72717 3.7966 3.83217 3.50361 4.04317 3.2926C4.25417 3.0816 4.54617 2.9746 4.84317 3.0046L14.1872 3.8766C14.4192 3.89761 14.6362 3.99961 14.8012 4.16461L21.2182 10.5816C21.5612 10.9246 21.7502 11.3806 21.7502 11.8666C21.7502 12.3526 21.5612 12.8086 21.2182 13.1516L13.9012 20.4676C13.5472 20.8216 13.0822 20.9986 12.6162 20.9986Z" fill="white"/>
</svg>
