<svg width="25" height="24" viewBox="0 0 25 24" fill="none" xmlns="http://www.w3.org/2000/svg">
<path d="M12.3906 7.9043L5.5625 13.5449V19.5938C5.5625 19.9277 5.82227 20.1875 6.15625 20.1875H10.3125C10.6094 20.1875 10.8691 19.9277 10.8691 19.5938V16.0312C10.8691 15.7344 11.166 15.4375 11.4629 15.4375H13.8379C14.1719 15.4375 14.4316 15.7344 14.4316 16.0312V19.5938C14.4316 19.9277 14.7285 20.1875 15.0254 20.1875H19.2188C19.5156 20.1875 19.8125 19.9277 19.8125 19.5938V13.5078L12.9473 7.9043C12.873 7.83008 12.7617 7.79297 12.6875 7.79297C12.5762 7.79297 12.4648 7.83008 12.3906 7.9043ZM23.1895 11.7266L20.1094 9.16602V4.04492C20.1094 3.78516 19.8867 3.59961 19.6641 3.59961H17.5859C17.3262 3.59961 17.1406 3.78516 17.1406 4.04492V6.7168L13.8008 3.9707C13.541 3.74805 13.0215 3.59961 12.6504 3.59961C12.3164 3.59961 11.7969 3.74805 11.5371 3.9707L2.14844 11.7266C2.03711 11.8008 1.96289 11.9492 1.96289 12.0605C1.96289 12.1719 2.03711 12.2832 2.07422 12.3574L3.03906 13.5078C3.11328 13.582 3.26172 13.6562 3.37305 13.6562C3.44727 13.6562 3.5957 13.6191 3.66992 13.5449L12.3906 6.38281C12.4648 6.30859 12.5762 6.27148 12.6875 6.27148C12.7617 6.27148 12.873 6.30859 12.9473 6.38281L21.668 13.5449C21.7422 13.6191 21.8906 13.6562 21.9648 13.6562C22.0762 13.6562 22.2246 13.582 22.2988 13.5078L23.2637 12.3574C23.3008 12.2832 23.375 12.1719 23.375 12.0605C23.375 11.9492 23.3008 11.8008 23.1895 11.7266Z" fill="#21B7FB"/>
</svg>
