<svg width="25" height="24" viewBox="0 0 25 24" fill="none" xmlns="http://www.w3.org/2000/svg">
<path d="M23.7708 11.2118L21.5556 9.37847V5.71181C21.5556 5.55903 21.4028 5.40625 21.25 5.40625H20.0278C19.8368 5.44444 19.7222 5.55903 19.7222 5.71181V7.88889L14.3368 3.45833C14.0312 3.19097 13.4201 3 13 3C12.5417 3 11.9306 3.19097 11.625 3.45833L2.19097 11.2118C2.07639 11.3264 2 11.5174 2 11.6701C2 11.7847 2.03819 11.9757 2.11458 12.0521L2.53472 12.5486C2.61111 12.6632 2.84028 12.7396 2.99306 12.7396C3.10764 12.7396 3.29861 12.7014 3.375 12.625L4.44444 11.7465V18.8507C4.44444 19.5382 4.97917 20.0729 5.66667 20.0729H10.5556C11.2049 20.0729 11.7396 19.5382 11.7778 18.8507V14.8785H14.2222V18.8507C14.2222 19.5382 14.7569 20.0729 15.4444 20.0729H20.3333C20.9826 20.0729 21.5174 19.5382 21.5556 18.8889V11.7465L22.5868 12.625C22.6632 12.7014 22.8542 12.7778 22.9688 12.7778C23.1215 12.7778 23.3507 12.6632 23.4653 12.5486L23.8472 12.0521C23.9236 11.9757 24 11.7847 24 11.6701C24 11.5174 23.8854 11.3264 23.7708 11.2118ZM19.684 18.2396H16.0556V14.2674C16.0174 13.6181 15.4826 13.0833 14.8333 13.0451H11.1667C10.4792 13.0833 9.94444 13.6181 9.94444 14.2674V18.2396H6.27778V10.2569L13 4.71875L19.7222 10.2569L19.684 18.2396Z" fill="#F4F4F4"/>
</svg>
