<svg width="25" height="24" viewBox="0 0 25 24" fill="none" xmlns="http://www.w3.org/2000/svg">
<path fill-rule="evenodd" clip-rule="evenodd" d="M15.367 19.552C16.416 18.054 17.507 15.851 17.725 13H20.68C20.297 16.052 18.191 18.57 15.367 19.552ZM4.819 13H7.811C8.017 15.862 9.094 18.056 10.157 19.561C7.32 18.584 5.204 16.061 4.819 13ZM10.188 4.429C9.136 5.927 8.035 8.137 7.815 11H4.819C5.205 7.928 7.336 5.397 10.188 4.429ZM9.829 11C10.135 7.728 11.809 5.45 12.776 4.397C13.776 5.468 15.424 7.725 15.709 11H9.829ZM9.83 13H15.712C15.406 16.277 13.728 18.555 12.762 19.608C11.715 18.498 10.109 16.272 9.83 13ZM20.68 11H17.728C17.523 8.151 16.458 5.964 15.4 4.461C18.208 5.451 20.299 7.96 20.68 11ZM22.75 12C22.75 6.496 18.279 2.018 12.778 2.002C12.774 2.002 12.77 2.001 12.765 2.001C12.761 2.001 12.755 2 12.75 2C7.236 2 2.75 6.487 2.75 12C2.75 17.514 7.236 22 12.75 22C12.756 22 12.761 21.999 12.765 21.999C12.767 21.999 12.768 22 12.77 22C12.773 22 12.776 21.998 12.778 21.998C18.279 21.983 22.75 17.504 22.75 12Z" fill="white"/>
</svg>
