<svg width="25" height="24" viewBox="0 0 25 24" fill="none" xmlns="http://www.w3.org/2000/svg">
<path fill-rule="evenodd" clip-rule="evenodd" d="M3.25 7C3.25 6.448 3.698 6 4.25 6C4.802 6 5.25 6.448 5.25 7C5.25 7.552 4.802 8 4.25 8C3.698 8 3.25 7.552 3.25 7ZM3.25 12C3.25 11.448 3.698 11 4.25 11C4.802 11 5.25 11.448 5.25 12C5.25 12.552 4.802 13 4.25 13C3.698 13 3.25 12.552 3.25 12ZM4.25 16C3.698 16 3.25 16.448 3.25 17C3.25 17.552 3.698 18 4.25 18C4.802 18 5.25 17.552 5.25 17C5.25 16.448 4.802 16 4.25 16ZM8.1855 11H20.3145C20.8295 11 21.2505 11.421 21.2505 11.936V12.064C21.2505 12.579 20.8295 13 20.3145 13H8.1855C7.6705 13 7.2505 12.579 7.2505 12.064V11.936C7.2505 11.421 7.6705 11 8.1855 11ZM20.3145 16H8.1855C7.6705 16 7.2505 16.421 7.2505 16.936V17.064C7.2505 17.579 7.6705 18 8.1855 18H20.3145C20.8295 18 21.2505 17.579 21.2505 17.064V16.936C21.2505 16.421 20.8295 16 20.3145 16ZM8.1855 6H20.3145C20.8295 6 21.2505 6.421 21.2505 6.936V7.064C21.2505 7.579 20.8295 8 20.3145 8H8.1855C7.6705 8 7.2505 7.579 7.2505 7.064V6.936C7.2505 6.421 7.6705 6 8.1855 6Z" fill="white"/>
</svg>
