<svg width="25" height="24" viewBox="0 0 25 24" fill="none" xmlns="http://www.w3.org/2000/svg">
<path fill-rule="evenodd" clip-rule="evenodd" d="M19.75 17.4541L17.75 16.5561V6.54608L19.75 7.44408V17.4541ZM13.75 7.44408L15.75 6.54608V16.5561L13.75 17.4541V7.44408ZM9.75 6.54608L11.75 7.44408V17.4541L9.75 16.5561V6.54608ZM5.75 7.44408L7.75 6.54608V16.5561L5.75 17.4541V7.44408ZM21.16 5.88608L17.16 4.08808C17.145 4.08108 17.129 4.08008 17.114 4.07408C17.073 4.05808 17.032 4.04708 16.99 4.03608C16.951 4.02608 16.912 4.01708 16.872 4.01308C16.833 4.00808 16.794 4.00708 16.754 4.00708C16.71 4.00708 16.667 4.00808 16.623 4.01308C16.586 4.01708 16.551 4.02608 16.515 4.03508C16.471 4.04608 16.428 4.05808 16.385 4.07408C16.371 4.08008 16.354 4.08108 16.34 4.08808L12.75 5.70108L9.16 4.08808C9.145 4.08108 9.129 4.08008 9.114 4.07408C9.073 4.05808 9.032 4.04708 8.99 4.03608C8.951 4.02608 8.912 4.01708 8.872 4.01308C8.833 4.00808 8.794 4.00708 8.754 4.00708C8.71 4.00708 8.667 4.00808 8.623 4.01308C8.586 4.01708 8.551 4.02608 8.515 4.03508C8.471 4.04608 8.428 4.05808 8.385 4.07408C8.371 4.08008 8.354 4.08108 8.34 4.08808L4.34 5.88608C3.981 6.04708 3.75 6.40408 3.75 6.79808V19.0001C3.75 19.3391 3.922 19.6551 4.207 19.8401C4.371 19.9461 4.56 20.0001 4.75 20.0001C4.889 20.0001 5.029 19.9711 5.16 19.9121L8.75 18.2991L12.34 19.9121C12.355 19.9191 12.371 19.9161 12.387 19.9221C12.504 19.9691 12.625 20.0001 12.75 20.0001C12.875 20.0001 12.996 19.9691 13.113 19.9221C13.128 19.9161 13.146 19.9191 13.16 19.9121L16.75 18.2991L20.34 19.9121C20.471 19.9711 20.611 20.0001 20.75 20.0001C20.94 20.0001 21.129 19.9461 21.293 19.8401C21.578 19.6551 21.75 19.3391 21.75 19.0001V6.79808C21.75 6.40408 21.519 6.04708 21.16 5.88608Z" fill="white"/>
</svg>
