<svg width="25" height="24" viewBox="0 0 25 24" fill="none" xmlns="http://www.w3.org/2000/svg">
<path fill-rule="evenodd" clip-rule="evenodd" d="M12.25 4C11.147 4 10.25 4.897 10.25 6V11C10.25 12.103 11.147 13 12.25 13C13.353 13 14.25 12.103 14.25 11V6C14.25 4.897 13.353 4 12.25 4ZM16.25 11C16.25 13.206 14.456 15 12.25 15C10.044 15 8.25 13.206 8.25 11V6C8.25 3.794 10.044 2 12.25 2C14.456 2 16.25 3.794 16.25 6V11ZM18.25 10C18.803 10 19.25 10.448 19.25 11C19.25 14.52 16.637 17.432 13.25 17.92V20H15.355C15.848 20 16.25 20.402 16.25 20.895V21.105C16.25 21.598 15.848 22 15.355 22H9.145C8.652 22 8.25 21.598 8.25 21.105V20.895C8.25 20.402 8.652 20 9.145 20H11.25V17.92C7.863 17.432 5.25 14.52 5.25 11C5.25 10.448 5.697 10 6.25 10C6.803 10 7.25 10.448 7.25 11C7.25 13.757 9.493 16 12.25 16C15.007 16 17.25 13.757 17.25 11C17.25 10.448 17.697 10 18.25 10Z" fill="white"/>
</svg>
