<svg width="25" height="24" viewBox="0 0 25 24" fill="none" xmlns="http://www.w3.org/2000/svg">
<path fill-rule="evenodd" clip-rule="evenodd" d="M12.75 7C13.854 7 14.75 6.104 14.75 5C14.75 3.896 13.854 3 12.75 3C11.646 3 10.75 3.896 10.75 5C10.75 6.104 11.646 7 12.75 7ZM12.75 10C11.646 10 10.75 10.896 10.75 12C10.75 13.104 11.646 14 12.75 14C13.854 14 14.75 13.104 14.75 12C14.75 10.896 13.854 10 12.75 10ZM10.75 19C10.75 17.896 11.646 17 12.75 17C13.854 17 14.75 17.896 14.75 19C14.75 20.104 13.854 21 12.75 21C11.646 21 10.75 20.104 10.75 19Z" fill="white"/>
</svg>
