<svg width="25" height="24" viewBox="0 0 25 24" fill="none" xmlns="http://www.w3.org/2000/svg">
<path fill-rule="evenodd" clip-rule="evenodd" d="M9 9C9 8.45 9.675 8 10.5 8C11.325 8 12 8.45 12 9V15C12 15.55 11.325 16 10.5 16C9.675 16 9 15.55 9 15V9ZM14 9C14 8.45 14.675 8 15.5 8C16.325 8 17 8.45 17 9V15C17 15.55 16.325 16 15.5 16C14.675 16 14 15.55 14 15V9ZM12.75 2C7.236 2 2.75 6.486 2.75 12C2.75 17.514 7.236 22 12.75 22C18.264 22 22.75 17.514 22.75 12C22.75 6.486 18.264 2 12.75 2Z" fill="white"/>
</svg>
