<svg width="25" height="24" viewBox="0 0 25 24" fill="none" xmlns="http://www.w3.org/2000/svg">
<path fill-rule="evenodd" clip-rule="evenodd" d="M12.75 13C10.82 13 9.25 11.43 9.25 9.5C9.25 7.57 10.82 6 12.75 6C14.68 6 16.25 7.57 16.25 9.5C16.25 11.43 14.68 13 12.75 13ZM12.75 2C8.339 2 4.75 5.554 4.75 9.923C4.75 15.397 11.799 21.502 12.099 21.759C12.287 21.92 12.518 22 12.75 22C12.982 22 13.213 21.92 13.401 21.759C13.701 21.502 20.75 15.397 20.75 9.923C20.75 5.554 17.161 2 12.75 2Z" fill="#21B7FB"/>
</svg>
