<svg width="25" height="24" viewBox="0 0 25 24" fill="none" xmlns="http://www.w3.org/2000/svg">
<path fill-rule="evenodd" clip-rule="evenodd" d="M12.75 10.9995C11.923 10.9995 11.25 10.3265 11.25 9.4995C11.25 8.6725 11.923 7.9995 12.75 7.9995C13.577 7.9995 14.25 8.6725 14.25 9.4995C14.25 10.3265 13.577 10.9995 12.75 10.9995ZM12.75 5.9995C10.82 5.9995 9.25 7.5695 9.25 9.4995C9.25 11.4295 10.82 12.9995 12.75 12.9995C14.68 12.9995 16.25 11.4295 16.25 9.4995C16.25 7.5695 14.68 5.9995 12.75 5.9995ZM12.75 19.646C11.075 18.062 6.75 13.615 6.75 9.922C6.75 6.657 9.441 4 12.75 4C16.059 4 18.75 6.657 18.75 9.922C18.75 13.615 14.425 18.062 12.75 19.646ZM12.75 2C8.339 2 4.75 5.553 4.75 9.922C4.75 15.397 11.799 21.501 12.099 21.758C12.287 21.919 12.518 22 12.75 22C12.982 22 13.213 21.919 13.401 21.758C13.701 21.501 20.75 15.397 20.75 9.922C20.75 5.553 17.161 2 12.75 2Z" fill="white"/>
</svg>
