<svg width="25" height="24" viewBox="0 0 25 24" fill="none" xmlns="http://www.w3.org/2000/svg">
<path fill-rule="evenodd" clip-rule="evenodd" d="M14.25 10C14.25 13.3137 11.5637 16 8.25 16C4.93629 16 2.25 13.3137 2.25 10C2.25 6.68629 4.93629 4 8.25 4C11.5637 4 14.25 6.68629 14.25 10ZM11.0787 7.17156C10.6881 6.78103 10.055 6.78103 9.66444 7.17156L8.25023 8.58577L6.83601 7.17156C6.44549 6.78103 5.81232 6.78103 5.4218 7.17156C5.03128 7.56208 5.03128 8.19524 5.4218 8.58577L6.83601 9.99998L5.4218 11.4142C5.03128 11.8047 5.03128 12.4379 5.4218 12.8284C5.81232 13.2189 6.44549 13.2189 6.83601 12.8284L8.25023 11.4142L9.66444 12.8284C10.055 13.2189 10.6881 13.2189 11.0787 12.8284C11.4692 12.4379 11.4692 11.8047 11.0787 11.4142L9.66444 9.99998L11.0787 8.58577C11.4692 8.19524 11.4692 7.56208 11.0787 7.17156Z" fill="white"/>
<path d="M16.25 10H21.314C21.829 10 22.25 9.579 22.25 9.064V8.936C22.25 8.421 21.829 8 21.314 8H15.998C16.1625 8.63924 16.25 9.3094 16.25 10Z" fill="white"/>
<path d="M14.4954 15C14.9776 14.3984 15.3747 13.7257 15.6685 13H21.314C21.829 13 22.25 13.421 22.25 13.936V14.064C22.25 14.579 21.829 15 21.314 15H14.4954Z" fill="white"/>
<path d="M21.314 18C21.829 18 22.25 18.421 22.25 18.936V19.064C22.25 19.579 21.829 20 21.314 20H7.185C6.67 20 6.25 19.579 6.25 19.064V18.936C6.25 18.421 6.67 18 7.185 18H21.314Z" fill="white"/>
</svg>
