<svg width="25" height="24" viewBox="0 0 25 24" fill="none" xmlns="http://www.w3.org/2000/svg">
<path fill-rule="evenodd" clip-rule="evenodd" d="M12.839 8.36233C12.341 7.99273 11.614 7.89673 10.988 8.11673C10.378 8.32953 10 8.78473 10 9.30394V14.6968C10 15.216 10.378 15.6712 10.988 15.884C11.211 15.9624 11.448 16 11.681 16C12.104 16 12.519 15.876 12.838 15.6392L16.48 12.9432C16.811 12.6984 17 12.3552 17 12C17 11.6456 16.811 11.3016 16.48 11.0576L12.839 8.36233ZM12.75 2C7.236 2 2.75 6.486 2.75 12C2.75 17.514 7.236 22 12.75 22C18.264 22 22.75 17.514 22.75 12C22.75 6.486 18.264 2 12.75 2Z" fill="white"/>
</svg>
