<svg width="25" height="24" viewBox="0 0 25 24" fill="none" xmlns="http://www.w3.org/2000/svg">
<path d="M16.25 10H21.314C21.829 10 22.25 9.579 22.25 9.064V8.936C22.25 8.421 21.829 8 21.314 8H15.998C16.1625 8.63924 16.25 9.3094 16.25 10Z" fill="white"/>
<path d="M14.4954 15C14.9776 14.3984 15.3747 13.7257 15.6685 13H21.314C21.829 13 22.25 13.421 22.25 13.936V14.064C22.25 14.579 21.829 15 21.314 15H14.4954Z" fill="white"/>
<path d="M21.314 18C21.829 18 22.25 18.421 22.25 18.936V19.064C22.25 19.579 21.829 20 21.314 20H7.185C6.67 20 6.25 19.579 6.25 19.064V18.936C6.25 18.421 6.67 18 7.185 18H21.314Z" fill="white"/>
<path fill-rule="evenodd" clip-rule="evenodd" d="M14.25 10C14.25 13.3137 11.5637 16 8.25 16C4.93629 16 2.25 13.3137 2.25 10C2.25 6.68629 4.93629 4 8.25 4C11.5637 4 14.25 6.68629 14.25 10ZM8.25 6C7.69772 6 7.25 6.44772 7.25 7V9H5.25C4.69772 9 4.25 9.44772 4.25 10C4.25 10.5523 4.69772 11 5.25 11H7.25V13C7.25 13.5523 7.69772 14 8.25 14C8.80228 14 9.25 13.5523 9.25 13V11H11.25C11.8023 11 12.25 10.5523 12.25 10C12.25 9.44772 11.8023 9 11.25 9H9.25V7C9.25 6.44772 8.80228 6 8.25 6Z" fill="white"/>
</svg>
