<svg width="25" height="24" viewBox="0 0 25 24" fill="none" xmlns="http://www.w3.org/2000/svg">
<path fill-rule="evenodd" clip-rule="evenodd" d="M11.75 8C11.75 7.448 12.198 7 12.75 7C13.302 7 13.75 7.448 13.75 8V13C13.75 13.552 13.302 14 12.75 14C12.198 14 11.75 13.552 11.75 13V8ZM11.75 16C11.75 15.448 12.198 15 12.75 15C13.302 15 13.75 15.448 13.75 16C13.75 16.552 13.302 17 12.75 17C12.198 17 11.75 16.552 11.75 16ZM12.75 20C8.339 20 4.75 16.411 4.75 12C4.75 7.589 8.339 4 12.75 4C17.161 4 20.75 7.589 20.75 12C20.75 16.411 17.161 20 12.75 20ZM12.75 2C7.227 2 2.75 6.477 2.75 12C2.75 17.523 7.227 22 12.75 22C18.273 22 22.75 17.523 22.75 12C22.75 6.477 18.273 2 12.75 2Z" fill="white"/>
</svg>
