<svg width="25" height="24" viewBox="0 0 25 24" fill="none" xmlns="http://www.w3.org/2000/svg">
<path fill-rule="evenodd" clip-rule="evenodd" d="M4.44676 13.4258C4.97276 13.2588 5.53476 13.5498 5.70275 14.0758C6.63976 17.0218 9.39776 18.9998 12.5658 18.9998C16.5278 18.9998 19.7498 15.8598 19.7498 11.9998C19.7498 8.14082 16.5278 4.99982 12.5658 4.99982C10.8378 4.99982 9.20776 5.60182 7.92076 6.66982L10.0868 6.31282C10.6368 6.21282 11.1468 6.59182 11.2368 7.13582C11.3268 7.68082 10.9578 8.19582 10.4128 8.28482L6.16676 8.98682C6.11176 8.99582 6.05576 8.99982 6.00276 8.99982C5.88376 8.99982 5.76776 8.97882 5.65976 8.93882C5.62276 8.92482 5.59275 8.89882 5.55676 8.87982C5.49076 8.84582 5.42175 8.81582 5.36476 8.76782C5.32876 8.73882 5.30576 8.69682 5.27476 8.66282C5.22775 8.61382 5.17776 8.56682 5.14276 8.50682C5.11776 8.46382 5.10776 8.41282 5.08876 8.36482C5.06476 8.30582 5.03275 8.25082 5.02076 8.18582L4.26676 4.18582C4.16476 3.64282 4.52176 3.11882 5.06476 3.01782C5.60576 2.91982 6.13076 3.27282 6.23276 3.81482L6.50476 5.25582C8.16876 3.81482 10.3018 2.99982 12.5658 2.99982C17.6298 2.99982 21.7498 7.03682 21.7498 11.9998C21.7498 16.9628 17.6298 20.9998 12.5658 20.9998C8.52376 20.9998 4.99976 18.4608 3.79676 14.6818C3.62976 14.1558 3.92076 13.5938 4.44676 13.4258Z" fill="white"/>
</svg>
