<svg width="25" height="24" viewBox="0 0 25 24" fill="none" xmlns="http://www.w3.org/2000/svg">
<path fill-rule="evenodd" clip-rule="evenodd" d="M6.75 11C6.75 8.2425 8.9925 6 11.75 6C14.5075 6 16.75 8.2425 16.75 11C16.75 13.7575 14.5075 16 11.75 16C8.9925 16 6.75 13.7575 6.75 11ZM21.457 19.293L18.062 15.897C19.115 14.543 19.75 12.846 19.75 11C19.75 6.589 16.161 3 11.75 3C7.339 3 3.75 6.589 3.75 11C3.75 15.411 7.339 19 11.75 19C13.596 19 15.293 18.365 16.647 17.312L20.043 20.707C20.238 20.902 20.494 21 20.75 21C21.006 21 21.262 20.902 21.457 20.707C21.848 20.316 21.848 19.684 21.457 19.293Z" fill="#21B7FB"/>
</svg>
