<svg width="25" height="24" viewBox="0 0 25 24" fill="none" xmlns="http://www.w3.org/2000/svg">
<path fill-rule="evenodd" clip-rule="evenodd" d="M11.6245 20H12.8755V19.233C12.8755 18.298 13.4505 17.458 14.3395 17.091C15.2595 16.708 16.2645 16.896 16.9265 17.562L17.4655 18.103L18.3535 17.215L17.8085 16.671C17.1455 16.009 16.9585 15.005 17.3315 14.114C17.3315 14.114 17.3325 14.113 17.3325 14.112L17.3435 14.084C17.7075 13.201 18.5485 12.625 19.4835 12.625H20.2495V11.375H19.4835C18.5485 11.375 17.7075 10.8 17.3415 9.911C16.9565 8.991 17.1455 7.986 17.8115 7.323L18.3525 6.784L17.4655 5.897L16.9205 6.442C16.2585 7.104 15.2555 7.291 14.3645 6.919C13.4515 6.542 12.8755 5.702 12.8755 4.767V4H11.6245V4.767C11.6245 5.702 11.0495 6.542 10.1605 6.909C9.24151 7.294 8.23651 7.105 7.57351 6.438L7.03451 5.897L6.14651 6.785L6.69151 7.329C7.35351 7.991 7.54151 8.995 7.16851 9.886C6.79251 10.799 5.95151 11.375 5.01651 11.375H4.24951V12.625H5.01651C5.95151 12.625 6.79251 13.2 7.15851 14.089C7.54351 15.009 7.35451 16.014 6.68851 16.677L6.14751 17.216L7.03451 18.103L7.57951 17.558C8.24151 16.896 9.24451 16.709 10.1355 17.081C11.0485 17.458 11.6245 18.298 11.6245 19.233V20ZM13.1925 22H11.3005C10.3765 22 9.62451 21.248 9.62451 20.324V19.233C9.62451 19.086 9.50751 18.985 9.39751 18.94C9.25351 18.881 9.09951 18.869 8.99351 18.972L8.22351 19.743C7.56751 20.397 6.50151 20.399 5.84651 19.743L4.50651 18.403C4.18851 18.085 4.01451 17.663 4.01451 17.213C4.01551 16.764 4.19051 16.342 4.50951 16.024L5.27751 15.259C5.38251 15.154 5.37151 15 5.32451 14.889C5.26451 14.742 5.16451 14.625 5.01651 14.625H3.93251C3.00451 14.625 2.24951 13.871 2.24951 12.943V11.051C2.24951 10.126 3.00151 9.375 3.92651 9.375H5.01651C5.16351 9.375 5.26451 9.257 5.30951 9.147C5.36951 9.003 5.38151 8.848 5.27751 8.744L4.50651 7.974C3.85251 7.317 3.85251 6.251 4.50651 5.597L5.84651 4.257C6.16451 3.939 6.58551 3.765 7.03451 3.765H7.03651C7.48551 3.765 7.90851 3.94 8.22551 4.259L8.99051 5.028C9.09551 5.134 9.25051 5.122 9.36151 5.075C9.50751 5.014 9.62451 4.914 9.62451 4.767V3.683C9.62451 2.755 10.3795 2 11.3075 2H13.1995C14.1235 2 14.8755 2.752 14.8755 3.676V4.767C14.8755 4.914 14.9925 5.015 15.1025 5.06C15.2475 5.12 15.4015 5.133 15.5065 5.028L16.2765 4.257C16.9325 3.603 17.9985 3.601 18.6535 4.257L19.9945 5.598C20.3125 5.915 20.4865 6.337 20.4855 6.787C20.4855 7.235 20.3105 7.658 19.9915 7.975L19.2225 8.741C19.1175 8.846 19.1285 9 19.1755 9.111C19.2355 9.258 19.3355 9.375 19.4835 9.375H20.5675C21.4955 9.375 22.2495 10.129 22.2495 11.057V12.949C22.2495 13.874 21.4985 14.625 20.5735 14.625H19.4835C19.3365 14.625 19.2355 14.743 19.1905 14.853C19.1895 14.854 19.1775 14.884 19.1765 14.886C19.1305 14.997 19.1185 15.152 19.2225 15.256L19.9935 16.026C20.6475 16.683 20.6475 17.749 19.9935 18.403L18.6535 19.743C18.3355 20.061 17.9145 20.235 17.4655 20.235H17.4635C17.0145 20.235 16.5915 20.06 16.2745 19.741L15.5095 18.972C15.4045 18.867 15.2485 18.879 15.1385 18.925C14.9925 18.986 14.8755 19.086 14.8755 19.233V20.317C14.8755 21.245 14.1205 22 13.1925 22ZM12.25 10.5C11.423 10.5 10.75 11.173 10.75 12C10.75 12.827 11.423 13.5 12.25 13.5C13.077 13.5 13.75 12.827 13.75 12C13.75 11.173 13.077 10.5 12.25 10.5ZM12.25 15.5C10.32 15.5 8.75001 13.93 8.75001 12C8.75001 10.07 10.32 8.5 12.25 8.5C14.18 8.5 15.75 10.07 15.75 12C15.75 13.93 14.18 15.5 12.25 15.5Z" fill="white"/>
</svg>
