<svg width="25" height="24" viewBox="0 0 25 24" fill="none" xmlns="http://www.w3.org/2000/svg">
<path fill-rule="evenodd" clip-rule="evenodd" d="M18.25 19C17.698 19 17.25 18.552 17.25 18C17.25 17.448 17.698 17 18.25 17C18.802 17 19.25 17.448 19.25 18C19.25 18.552 18.802 19 18.25 19ZM5.25 13C4.698 13 4.25 12.552 4.25 12C4.25 11.448 4.698 11 5.25 11C5.802 11 6.25 11.448 6.25 12C6.25 12.552 5.802 13 5.25 13ZM18.25 5C18.802 5 19.25 5.448 19.25 6C19.25 6.552 18.802 7 18.25 7C17.698 7 17.25 6.552 17.25 6C17.25 5.448 17.698 5 18.25 5ZM18.25 15C17.433 15 16.693 15.33 16.151 15.861L8.216 12.335C8.229 12.224 8.25 12.114 8.25 12C8.25 11.886 8.229 11.776 8.216 11.665L16.151 8.139C16.693 8.67 17.433 9 18.25 9C19.904 9 21.25 7.654 21.25 6C21.25 4.346 19.904 3 18.25 3C16.596 3 15.25 4.346 15.25 6C15.25 6.114 15.271 6.224 15.284 6.335L7.349 9.861C6.807 9.33 6.067 9 5.25 9C3.596 9 2.25 10.346 2.25 12C2.25 13.654 3.596 15 5.25 15C6.067 15 6.807 14.67 7.349 14.139L15.284 17.665C15.271 17.776 15.25 17.886 15.25 18C15.25 19.654 16.596 21 18.25 21C19.904 21 21.25 19.654 21.25 18C21.25 16.346 19.904 15 18.25 15Z" fill="white"/>
</svg>
