<svg width="25" height="24" viewBox="0 0 25 24" fill="none" xmlns="http://www.w3.org/2000/svg">
<path fill-rule="evenodd" clip-rule="evenodd" d="M21.0532 13.4258C20.5272 13.2588 19.9652 13.5498 19.7972 14.0758C18.8602 17.0218 16.1022 18.9998 12.9342 18.9998C8.97224 18.9998 5.75024 15.8598 5.75024 11.9998C5.75024 8.14082 8.97224 4.99982 12.9342 4.99982C14.6622 4.99982 16.2922 5.60182 17.5792 6.66982L15.4132 6.31282C14.8632 6.21282 14.3532 6.59182 14.2632 7.13582C14.1732 7.68082 14.5422 8.19582 15.0872 8.28482L19.3332 8.98682C19.3882 8.99582 19.4442 8.99982 19.4972 8.99982C19.6162 8.99982 19.7322 8.97882 19.8402 8.93882C19.8772 8.92482 19.9072 8.89882 19.9432 8.87982C20.0092 8.84582 20.0782 8.81582 20.1352 8.76782C20.1712 8.73882 20.1942 8.69682 20.2252 8.66282C20.2722 8.61382 20.3222 8.56682 20.3572 8.50682C20.3822 8.46382 20.3922 8.41282 20.4112 8.36482C20.4352 8.30582 20.4672 8.25082 20.4792 8.18582L21.2332 4.18582C21.3352 3.64282 20.9782 3.11882 20.4352 3.01782C19.8942 2.91982 19.3692 3.27282 19.2672 3.81482L18.9952 5.25582C17.3312 3.81482 15.1982 2.99982 12.9342 2.99982C7.87024 2.99982 3.75024 7.03682 3.75024 11.9998C3.75024 16.9628 7.87024 20.9998 12.9342 20.9998C16.9762 20.9998 20.5002 18.4608 21.7032 14.6818C21.8702 14.1558 21.5792 13.5938 21.0532 13.4258Z" fill="white"/>
</svg>
