<svg width="25" height="24" viewBox="0 0 25 24" fill="none" xmlns="http://www.w3.org/2000/svg">
<path d="M12.75 13C13.4903 13 14.1366 13.4022 14.4824 14H19.75C20.3023 14 20.75 14.4477 20.75 15C20.75 15.5523 20.3023 16 19.75 16H11.0176C10.8474 15.7058 10.75 15.3643 10.75 15C10.75 13.8954 11.6454 13 12.75 13Z" fill="white"/>
<path d="M5.75 16C5.19772 16 4.75 15.5523 4.75 15C4.75 14.4477 5.19772 14 5.75 14C6.30228 14 6.75 14.4477 6.75 15C6.75 15.5523 6.30228 16 5.75 16Z" fill="white"/>
<path d="M12.75 7C12.1977 7 11.75 7.44772 11.75 8C11.75 8.55228 12.1977 9 12.75 9C13.3023 9 13.75 8.55228 13.75 8C13.75 7.44772 13.3023 7 12.75 7Z" fill="white"/>
<path d="M7.75 9C7.19772 9 6.75 9.44772 6.75 10C6.75 10.5523 7.19772 11 7.75 11C8.30228 11 8.75 10.5523 8.75 10C8.75 9.44772 8.30228 9 7.75 9Z" fill="white"/>
<path d="M16.75 10C16.75 9.44772 17.1977 9 17.75 9C18.3023 9 18.75 9.44772 18.75 10C18.75 10.5523 18.3023 11 17.75 11C17.1977 11 16.75 10.5523 16.75 10Z" fill="white"/>
<path fill-rule="evenodd" clip-rule="evenodd" d="M20.546 20.5C21.2599 20.5 21.9197 20.1194 22.2772 19.5015C23.2143 17.8815 23.75 16.0003 23.75 14C23.75 7.92487 18.8251 3 12.75 3C6.67487 3 1.75 7.92487 1.75 14C1.75 16.0003 2.28571 17.8815 3.22283 19.5015C3.58031 20.1194 4.24011 20.5 4.95404 20.5H20.546ZM3.75 14C3.75 15.6393 4.18827 17.1762 4.95404 18.5H20.546C21.3117 17.1762 21.75 15.6393 21.75 14C21.75 9.02944 17.7206 5 12.75 5C7.77944 5 3.75 9.02944 3.75 14Z" fill="white"/>
</svg>
