<svg width="25" height="24" viewBox="0 0 25 24" fill="none" xmlns="http://www.w3.org/2000/svg">
<path d="M14.75 15C14.75 15.3643 14.6526 15.7058 14.4824 16H5.75C5.19772 16 4.75 15.5523 4.75 15C4.75 14.4477 5.19772 14 5.75 14H11.0176C11.3634 13.4022 12.0097 13 12.75 13C13.8546 13 14.75 13.8954 14.75 15Z" fill="white"/>
<path d="M11.75 8C11.75 7.44772 12.1977 7 12.75 7C13.3023 7 13.75 7.44772 13.75 8C13.75 8.55228 13.3023 9 12.75 9C12.1977 9 11.75 8.55228 11.75 8Z" fill="white"/>
<path d="M18.75 15C18.75 15.5523 19.1977 16 19.75 16C20.3023 16 20.75 15.5523 20.75 15C20.75 14.4477 20.3023 14 19.75 14C19.1977 14 18.75 14.4477 18.75 15Z" fill="white"/>
<path d="M6.75 10C6.75 9.44772 7.19772 9 7.75 9C8.30228 9 8.75 9.44772 8.75 10C8.75 10.5523 8.30228 11 7.75 11C7.19772 11 6.75 10.5523 6.75 10Z" fill="white"/>
<path d="M17.75 9C17.1977 9 16.75 9.44772 16.75 10C16.75 10.5523 17.1977 11 17.75 11C18.3023 11 18.75 10.5523 18.75 10C18.75 9.44772 18.3023 9 17.75 9Z" fill="white"/>
<path fill-rule="evenodd" clip-rule="evenodd" d="M20.546 20.5C21.2599 20.5 21.9197 20.1194 22.2772 19.5015C23.2143 17.8815 23.75 16.0003 23.75 14C23.75 7.92487 18.8251 3 12.75 3C6.67487 3 1.75 7.92487 1.75 14C1.75 16.0003 2.28571 17.8815 3.22283 19.5015C3.58031 20.1194 4.24011 20.5 4.95404 20.5H20.546ZM3.75 14C3.75 15.6393 4.18827 17.1762 4.95404 18.5H20.546C21.3117 17.1762 21.75 15.6393 21.75 14C21.75 9.02944 17.7206 5 12.75 5C7.77944 5 3.75 9.02944 3.75 14Z" fill="white"/>
</svg>
