<svg width="25" height="24" viewBox="0 0 25 24" fill="none" xmlns="http://www.w3.org/2000/svg">
<path fill-rule="evenodd" clip-rule="evenodd" d="M12.7495 16.05C12.9085 16.05 13.0675 16.088 13.2125 16.163L16.9815 18.133L16.2645 13.976C16.2075 13.65 16.3165 13.318 16.5545 13.087L19.5905 10.151L15.3875 9.539C15.0625 9.492 14.7815 9.289 14.6355 8.995L12.7495 5.201L10.8635 8.995C10.7175 9.289 10.4365 9.492 10.1115 9.539L5.90855 10.151L8.94455 13.087C9.18255 13.318 9.29155 13.65 9.23455 13.976L8.51755 18.133L12.2865 16.163C12.4315 16.088 12.5905 16.05 12.7495 16.05ZM18.3115 20.955C18.1525 20.955 17.9935 20.918 17.8485 20.842L12.7495 18.178L7.65055 20.842C7.31255 21.018 6.90455 20.987 6.59955 20.763C6.29155 20.539 6.13855 20.16 6.20255 19.785L7.17455 14.157L3.05455 10.172C2.77955 9.907 2.68155 9.509 2.79855 9.146C2.91455 8.783 3.22855 8.519 3.60555 8.464L9.30655 7.636L11.8535 2.51C12.1915 1.83 13.3075 1.83 13.6455 2.51L16.1925 7.636L21.8935 8.464C22.2705 8.519 22.5845 8.783 22.7005 9.146C22.8175 9.509 22.7195 9.907 22.4445 10.172L18.3245 14.157L19.2965 19.785C19.3605 20.16 19.2075 20.539 18.8995 20.763C18.7265 20.891 18.5195 20.955 18.3115 20.955Z" fill="white"/>
</svg>
