<svg width="25" height="24" viewBox="0 0 25 24" fill="none" xmlns="http://www.w3.org/2000/svg">
<path fill-rule="evenodd" clip-rule="evenodd" d="M14.25 7C14.25 5.897 13.353 5 12.25 5C11.147 5 10.25 5.897 10.25 7C10.25 8.103 11.147 9 12.25 9C13.353 9 14.25 8.103 14.25 7ZM16.25 7C16.25 9.206 14.456 11 12.25 11C10.044 11 8.25 9.206 8.25 7C8.25 4.794 10.044 3 12.25 3C14.456 3 16.25 4.794 16.25 7ZM5.25 20C5.25 16.14 8.391 13 12.25 13C16.109 13 19.25 16.14 19.25 20C19.25 20.552 18.803 21 18.25 21C17.697 21 17.25 20.552 17.25 20C17.25 17.243 15.007 15 12.25 15C9.493 15 7.25 17.243 7.25 20C7.25 20.552 6.803 21 6.25 21C5.697 21 5.25 20.552 5.25 20Z" fill="white"/>
</svg>
