<svg width="25" height="24" viewBox="0 0 25 24" fill="none" xmlns="http://www.w3.org/2000/svg">
<path fill-rule="evenodd" clip-rule="evenodd" d="M2.75 12C2.75 6.486 7.236 2 12.75 2C18.264 2 22.75 6.486 22.75 12C22.75 17.514 18.264 22 12.75 22C7.236 22 2.75 17.514 2.75 12ZM8.73438 9H14.25C14.6562 9 15 9.38672 15 9.84375V14.9238C15 15.3809 14.6562 15.75 14.25 15.75H8.73438C8.32812 15.75 8 15.3809 8 14.9238V9.84375C8 9.38672 8.32812 9 8.73438 9ZM15.5 11.0039L17.2031 9.66797C17.5312 9.42188 18 9.68555 18 10.125V14.6426C18 15.082 17.5312 15.3457 17.2031 15.0996L15.5 13.7637V11.0039Z" fill="#F4F4F4"/>
</svg>
